<svg xmlns="http://www.w3.org/2000/svg" style="display:none;">
 <symbol id="logo-symbol" viewBox="0 0 393.1 384.4" fill="currentColor">
 <title>Bill Tracker Logo</title>
 <path d="m197.13 132v15h9.3c5 0 13.6 0.3 19 0.7l9.7 0.6v62.9c0 38.7 0.4 62.8 0.9 62.8 0.6 0 3.6-3.5 6.8-7.8 3.2-4.2 10.2-12.2 15.5-17.8l9.8-10.1v-91.3h37v-28.7l-23.2-0.6c-12.8-0.4-37.1-0.7-54-0.7h-30.8zm-119.6 66.5 0.1 81.6 79-0.6 7.5-2.9c9.7-3.7 13.6-6.3 19.3-12.5 11.6-13 13.9-37.1 5.1-54.9-3.1-6.4-4.4-7.9-9.7-11.3-3.3-2.1-6.6-3.9-7.4-3.9-2 0-1.7-0.5 4.5-6.4 3.4-3.2 7.1-8.1 8.8-11.3 2.6-5.3 2.9-6.7 2.9-16.8 0-13.1-1.7-19.1-7.6-26.5-4.5-5.6-11.4-10-20.9-13.2-6.1-2-8.9-2.2-44.1-2.6l-37.7-0.4zm68.4-50.1c1.5 0.8 4 2.8 5.7 4.5 2.4 2.6 3 4.1 3.3 9.4 0.3 5.2 0 6.7-2 9.7-1.3 1.9-4.3 4.5-6.8 5.7-4 2.1-5.8 2.3-19.7 2.3h-15.3v-33h16c11.9 0 16.8 0.4 18.8 1.4zm4.2 63.6c10.7 5.5 14.1 18.7 7.3 28.4-1.9 2.6-4.9 5.1-8.8 7.1-5.7 2.9-6.2 3-21.7 3.2l-15.8 0.1v-41.3l17.6 0.3c15 0.2 18.2 0.5 21.4 2.2zm-66.2-209.1c-6.9 4.4-7.3 5.6-7.3 21.1v13.5l-16 0.6c-11.6 0.4-17.4 1.1-21 2.4-19 6.7-32.7 20.5-38.1 38.4-2.1 6.9-2 241.4 0.1 251.4 3.1 14.6 13.7 28 27.6 35 14.2 7.1 7 6.7 131.8 6.7h112.5l7.6 3.9c11.9 6.2 21.3 8.5 35.5 8.5 9.5 0 13.6-0.4 19.8-2.2 28.6-8.2 49.4-30.5 55.3-59.2 3.4-16.8 0.4-36.4-7.8-50.9l-3-5.4 0.7-87.6c0.5-62.8 0.4-89.6-0.4-94.6-3-18.9-18.3-36.6-37.8-43.7-4.6-1.7-9.1-2.2-22.2-2.7l-16.3-0.6 0.1-12.2c0.2-14.9-0.8-18-7.5-22.3-8.2-5.2-18.4-3.5-24.8 4-2.5 3.1-2.6 3.5-2.6 17.1v13.9h-158.9l-0.3-14.4c-0.3-13.8-0.4-14.6-2.8-17.1-6.6-7.1-16.4-8.5-24.2-3.6zm254 72.1c3.1 1.8 6.3 4.7 8 7.3l2.7 4.2 0.3 77.4c0.2 73.6 0.2 77.3-1.5 76.6-11.3-4.7-17-5.8-30.3-5.9-11.5-0.1-14.6 0.2-21 2.2-14.2 4.5-25.9 11.9-35.5 22.4-7 7.8-14.6 23-17.1 34.2-2.2 10.5-1.5 29.2 1.5 38.6 1.1 3.6 2.1 6.6 2.1 6.8 0 0.1-44.4 0.1-98.7 0l-98.8-0.3-4.2-2.2c-5.1-2.7-9.6-8.2-11.2-13.2-0.8-2.8-1.1-35.4-1.1-118.2v-114.4l2.4-5.1c2.8-6 7.9-10.2 14.4-12 3.7-1 35.2-1.3 143.7-1.3l139-0.1zm18.1 202.6c3.6 3 4.9 8 2.9 11.7-1.5 2.8-1.9 3.3-28.1 31.4-19.2 20.7-21.7 22.6-27.4 21.5-2.3-0.4-24.3-18.5-27.5-22.5-5.7-7.2 2.8-19.1 11.3-15.8 1.4 0.5 5.2 3.2 8.5 6 3.9 3.4 6.8 5.1 8.6 5.1 2.2 0 5.7-3.3 19.2-17.8 9.2-9.7 18-18.7 19.8-20 4.2-3 8.9-2.9 12.7 0.4z"/>
 </symbol>
</svg>
 
